<svg xmlns="http://www.w3.org/2000/svg" width="50" height="50" viewBox="0 0 50 50">
  <g id="Groupe_39" data-name="Groupe 39" transform="translate(-1773 -71)">
    <g id="Groupe_20" data-name="Groupe 20" transform="translate(1783.12 81.12)">
      <g id="Ellipse_6" data-name="Ellipse 6" transform="translate(-0.12 -0.12)" fill="none" stroke="#fff" stroke-width="10">
        <circle cx="15" cy="15" r="15" stroke="none"/>
        <circle cx="15" cy="15" r="20" fill="none"/>
      </g>
    </g>
    <g id="phone" transform="translate(1790.223 89.286)">
      <g id="Groupe_31" data-name="Groupe 31" transform="translate(0.539 0)">
        <path id="Tracé_74" data-name="Tracé 74" d="M15.182,11.059l-2.1-2.1a1.4,1.4,0,0,0-2.328.526,1.431,1.431,0,0,1-1.652.9A6.485,6.485,0,0,1,5.193,6.478a1.361,1.361,0,0,1,.9-1.652A1.4,1.4,0,0,0,6.62,2.5l-2.1-2.1a1.5,1.5,0,0,0-2.028,0L1.063,1.821c-1.427,1.5.15,5.482,3.68,9.012s7.51,5.182,9.012,3.68l1.427-1.427A1.5,1.5,0,0,0,15.182,11.059Z" transform="translate(-0.539 0)" fill="#fff"/>
      </g>
    </g>
  </g>
</svg>
