<svg xmlns="http://www.w3.org/2000/svg" width="50" height="50" viewBox="0 0 50 50">
  <g id="Groupe_38" data-name="Groupe 38" transform="translate(-1715 -71)">
    <g id="Groupe_21" data-name="Groupe 21" transform="translate(1725.12 81.12)">
      <g id="Ellipse_6" data-name="Ellipse 6" transform="translate(-0.12 -0.12)" fill="none" stroke="#fff" stroke-width="10">
        <circle cx="15" cy="15" r="15" stroke="none"/>
        <circle cx="15" cy="15" r="20" fill="none"/>
      </g>
    </g>
    <g id="linkedin" transform="translate(1734 89.286)">
      <path id="Tracé_62" data-name="Tracé 62" d="M17.229,16.833h0V11.871c0-2.427-.523-4.3-3.36-4.3a2.946,2.946,0,0,0-2.653,1.458h-.039V7.8H8.489v9.032h2.8V12.36c0-1.178.223-2.316,1.681-2.316,1.437,0,1.458,1.344,1.458,2.392v4.4Z" transform="translate(-3.704 -3.305)" fill="#fff"/>
      <path id="Tracé_63" data-name="Tracé 63" d="M.4,7.977H3.2v9.032H.4Z" transform="translate(-0.173 -3.481)" fill="#fff"/>
      <path id="Tracé_64" data-name="Tracé 64" d="M1.625,0A1.632,1.632,0,1,0,3.249,1.625,1.625,1.625,0,0,0,1.625,0Z" transform="translate(0)" fill="#fff"/>
    </g>
  </g>
</svg>
